<svg width="24" height="24" viewBox="0 0 24 24" fill="none" xmlns="http://www.w3.org/2000/svg">
<path d="M15.0021 11.5H18.9811V7.615C18.9811 7.43567 18.9234 7.28833 18.8081 7.173C18.6928 7.05767 18.5451 7 18.3651 7H15.0021V11.5ZM10.0171 11.5H13.9971V7H10.0171V11.5ZM5.03811 11.5H9.01811V7H5.65311C5.47311 7 5.32578 7.05767 5.21111 7.173C5.09511 7.28833 5.03711 7.43567 5.03711 7.615L5.03811 11.5ZM5.65411 17H9.01711V12.5H5.03811V16.385C5.03811 16.5643 5.09611 16.7117 5.21211 16.827C5.32744 16.9423 5.47478 17 5.65411 17ZM10.0171 17H13.9971V12.5H10.0171V17ZM15.0021 17H18.3651C18.5451 17 18.6928 16.9423 18.8081 16.827C18.9234 16.7117 18.9811 16.5643 18.9811 16.385V12.5H15.0001L15.0021 17ZM4.03811 16.385V7.615C4.03811 7.171 4.19644 6.791 4.51311 6.475C4.82978 6.15833 5.20978 6 5.65311 6H18.3651C18.8098 6 19.1901 6.15833 19.5061 6.475C19.8228 6.791 19.9811 7.171 19.9811 7.615V16.385C19.9811 16.829 19.8228 17.209 19.5061 17.525C19.1901 17.8417 18.8101 18 18.3661 18H5.65311C5.20911 18 4.82878 17.8417 4.51211 17.525C4.19544 17.209 4.03811 16.829 4.03811 16.385Z" fill="black" fill-opacity="0.9"/>
</svg>
