<svg width="48" height="47" viewBox="0 0 48 47" fill="none" xmlns="http://www.w3.org/2000/svg">
<path fill-rule="evenodd" clip-rule="evenodd" d="M36.7323 15.0681C37.6808 15.0681 38.5459 15.4582 39.1727 16.0858C39.8003 16.7088 40.1904 17.5748 40.1904 18.5266V22.5928H32.6088C30.3354 22.5928 28.4716 24.4566 28.4716 26.73V27.6049C28.4716 29.8783 30.3354 31.742 32.6088 31.742H40.1904V35.8078C40.1904 36.7592 39.8003 37.6252 39.1753 38.2507C38.5498 38.8762 37.6838 39.2663 36.7323 39.2663H15.0421C11.0681 39.2663 7.81055 36.0084 7.81055 32.0348V12.3179V12.2933C7.81055 9.72542 9.90419 7.6305 12.4721 7.6305H32.4295C32.9504 7.6305 33.3728 8.05288 33.3728 8.57342C33.3728 9.09439 32.9504 9.51677 32.4295 9.51677H12.4721C8.82656 9.51677 8.82019 15.0681 12.4721 15.0681H36.7323ZM40.1904 23.6721V30.6627H32.6088C30.9252 30.6627 29.551 29.2885 29.551 27.6049V26.73C29.551 25.0464 30.9252 23.6721 32.6088 23.6721H40.1904ZM34.8643 24.9588C35.4728 24.9588 36.0244 25.2066 36.4238 25.6056C36.8254 26.005 37.0727 26.5579 37.0727 27.1672C37.0727 27.777 36.8254 28.3294 36.426 28.7288C36.0265 29.1283 35.4741 29.3756 34.8643 29.3756C34.255 29.3756 33.7021 29.1283 33.3027 28.7288L33.2712 28.6948C32.8909 28.298 32.6559 27.7596 32.6559 27.1672C32.6559 26.5596 32.9037 26.0076 33.3027 25.6077C33.7047 25.2066 34.2567 24.9588 34.8643 24.9588ZM35.6632 26.3683C35.4597 26.1644 35.1771 26.0382 34.8643 26.0382C34.552 26.0382 34.2686 26.1648 34.065 26.3679C33.8619 26.5715 33.7353 26.8549 33.7353 27.1672C33.7353 27.4685 33.8526 27.7417 34.0429 27.944L34.0659 27.9657C34.2698 28.1696 34.5528 28.2963 34.8643 28.2963C35.1762 28.2963 35.4588 28.1696 35.6628 27.9657C35.8667 27.7617 35.9934 27.4791 35.9934 27.1672C35.9934 26.8557 35.8667 26.5727 35.6632 26.3683Z" fill="#0073B1"/>
</svg>
